  0
SECTION
  2
HEADER
  9
$ACADVER
  1
AC1009
  9
$DWGCODEPAGE
  3
ansi_1252
  9
$INSBASE
 10
0.0
 20
0.0
 30
0.0
  9
$EXTMIN
 10
-0.5
 20
-0.5
 30
-0.5
  9
$EXTMAX
 10
5.0
 20
5.0
 30
5.0
  9
$LIMMIN
 10
-0.5
 20
-0.5
  9
$LIMMAX
 10
5.0
 20
5.0
  9
$ORTHOMODE
 70
     0
  9
$REGENMODE
 70
     1
  9
$FILLMODE
 70
     1
  9
$QTEXTMODE
 70
     0
  9
$MIRRTEXT
 70
     1
  9
$DRAGMODE
 70
     2
  9
$LTSCALE
 40
1.0
  9
$OSMODE
 70
    37
  9
$ATTMODE
 70
     1
  9
$TEXTSIZE
 40
0.2
  9
$TRACEWID
 40
0.05
  9
$TEXTSTYLE
  7
STANDARD
  9
$CLAYER
  8
0
  9
$CELTYPE
  6
BYLAYER
  9
$CECOLOR
 62
   256
  9
$DIMSCALE
 40
1.0
  9
$DIMASZ
 40
0.18
  9
$DIMEXO
 40
0.0625
  9
$DIMDLI
 40
0.38
  9
$DIMRND
 40
0.0
  9
$DIMDLE
 40
0.0
  9
$DIMEXE
 40
0.18
  9
$DIMTP
 40
0.0
  9
$DIMTM
 40
0.0
  9
$DIMTXT
 40
0.18
  9
$DIMCEN
 40
0.09
  9
$DIMTSZ
 40
0.0
  9
$DIMTOL
 70
     0
  9
$DIMLIM
 70
     0
  9
$DIMTIH
 70
     1
  9
$DIMTOH
 70
     1
  9
$DIMSE1
 70
     0
  9
$DIMSE2
 70
     0
  9
$DIMTAD
 70
     0
  9
$DIMZIN
 70
     0
  9
$DIMBLK
  1

  9
$DIMASO
 70
     1
  9
$DIMSHO
 70
     1
  9
$DIMPOST
  1

  9
$DIMAPOST
  1

  9
$DIMALT
 70
     0
  9
$DIMALTD
 70
     2
  9
$DIMALTF
 40
25.4
  9
$DIMLFAC
 40
1.0
  9
$DIMTOFL
 70
     0
  9
$DIMTVP
 40
0.0
  9
$DIMTIX
 70
     0
  9
$DIMSOXD
 70
     0
  9
$DIMSAH
 70
     0
  9
$DIMBLK1
  1

  9
$DIMBLK2
  1

  9
$DIMSTYLE
  2
STANDARD
  9
$DIMCLRD
 70
     0
  9
$DIMCLRE
 70
     0
  9
$DIMCLRT
 70
     0
  9
$DIMTFAC
 40
1.0
  9
$DIMGAP
 40
0.09
  9
$LUNITS
 70
     2
  9
$LUPREC
 70
     4
  9
$SKETCHINC
 40
0.1
  9
$FILLETRAD
 40
0.5
  9
$AUNITS
 70
     0
  9
$AUPREC
 70
     0
  9
$MENU
  1
.
  9
$ELEVATION
 40
0.0
  9
$PELEVATION
 40
0.0
  9
$THICKNESS
 40
0.0
  9
$LIMCHECK
 70
     0
  9
$CHAMFERA
 40
0.0
  9
$CHAMFERB
 40
0.0
  9
$SKPOLY
 70
     0
  9
$TDCREATE
 40
2460611.679613542
  9
$TDUPDATE
 40
2460611.679613576
  9
$TDINDWG
 40
0.0000000116
  9
$TDUSRTIMER
 40
0.0000000116
  9
$USRTIMER
 70
     1
  9
$ANGBASE
 50
0.0
  9
$ANGDIR
 70
     0
  9
$PDMODE
 70
     0
  9
$PDSIZE
 40
0.0
  9
$PLINEWID
 40
0.0
  9
$COORDS
 70
     1
  9
$SPLFRAME
 70
     0
  9
$SPLINETYPE
 70
     6
  9
$SPLINESEGS
 70
     8
  9
$ATTDIA
 70
     0
  9
$ATTREQ
 70
     1
  9
$HANDLING
 70
     1
  9
$HANDSEED
  5
E7
  9
$SURFTAB1
 70
     6
  9
$SURFTAB2
 70
     6
  9
$SURFTYPE
 70
     6
  9
$SURFU
 70
     6
  9
$SURFV
 70
     6
  9
$UCSNAME
  2

  9
$UCSORG
 10
0.0
 20
0.0
 30
0.0
  9
$UCSXDIR
 10
1.0
 20
0.0
 30
0.0
  9
$UCSYDIR
 10
0.0
 20
1.0
 30
0.0
  9
$PUCSNAME
  2

  9
$PUCSORG
 10
0.0
 20
0.0
 30
0.0
  9
$PUCSXDIR
 10
1.0
 20
0.0
 30
0.0
  9
$PUCSYDIR
 10
0.0
 20
1.0
 30
0.0
  9
$USERI1
 70
     0
  9
$USERI2
 70
     0
  9
$USERI3
 70
     0
  9
$USERI4
 70
     0
  9
$USERI5
 70
     0
  9
$USERR1
 40
0.0
  9
$USERR2
 40
0.0
  9
$USERR3
 40
0.0
  9
$USERR4
 40
0.0
  9
$USERR5
 40
0.0
  9
$WORLDVIEW
 70
     1
  9
$SHADEDGE
 70
     3
  9
$SHADEDIF
 70
    70
  9
$TILEMODE
 70
     1
  9
$MAXACTVP
 70
    64
  9
$PLIMCHECK
 70
     0
  9
$PEXTMIN
 10
-0.5
 20
-0.5
 30
-0.5
  9
$PEXTMAX
 10
5.0
 20
5.0
 30
5.0
  9
$PLIMMIN
 10
-0.5
 20
-0.5
  9
$PLIMMAX
 10
5.0
 20
5.0
  9
$UNITMODE
 70
     0
  9
$VISRETAIN
 70
     1
  9
$PLINEGEN
 70
     0
  9
$PSLTSCALE
 70
     1
  0
ENDSEC
  0
SECTION
  2
TABLES
  0
TABLE
  2
VPORT
 70
    16
  0
VPORT
  2
*ACTIVE
 70
     0
 10
0.0
 20
0.0
 11
1.0
 21
1.0
 12
0.0
 22
0.0
 13
0.0
 23
0.0
 14
0.5
 24
0.5
 15
0.5
 25
0.5
 16
0.0
 26
0.0
 36
1.0
 17
0.0
 27
0.0
 37
0.0
 40
297.65625
 41
0.059655
 42
50.0
 43
153.577409
 44
-153.577409
 50
0.0
 51
0.0
 71
     0
 72
   100
 73
     1
 74
     3
 75
     0
 76
     0
 77
     0
 78
     0
  0
VPORT
  2
L1
 70
     0
 10
0.0
 20
0.0
 11
1.0
 21
1.0
 12
0.0
 22
0.0
 13
0.0
 23
0.0
 14
0.5
 24
0.5
 15
0.5
 25
0.5
 16
0.0
 26
0.0
 36
1.0
 17
0.0
 27
0.0
 37
0.0
 40
297.65625
 41
0.059655
 42
50.0
 43
153.577409
 44
-153.577409
 50
0.0
 51
0.0
 71
     0
 72
   100
 73
     1
 74
     3
 75
     0
 76
     0
 77
     0
 78
     0
  0
VPORT
  2
L2
 70
     0
 10
0.0
 20
0.0
 11
0.5
 21
1.0
 12
0.0
 22
0.0
 13
0.0
 23
0.0
 14
0.5
 24
0.5
 15
0.5
 25
0.5
 16
0.0
 26
-1.0
 36
0.0
 17
0.0
 27
0.0
 37
0.0
 40
1796.638703
 41
0.009883
 42
50.0
 43
923.223819
 44
-923.223819
 50
0.0
 51
0.0
 71
     0
 72
   100
 73
     1
 74
     3
 75
     0
 76
     0
 77
     0
 78
     0
  0
VPORT
  2
L2
 70
     0
 10
0.5
 20
0.0
 11
1.0
 21
1.0
 12
0.0
 22
0.0
 13
0.0
 23
0.0
 14
0.5
 24
0.5
 15
0.5
 25
0.5
 16
1.0
 26
0.0
 36
0.0
 17
0.0
 27
0.0
 37
0.0
 40
1796.638703
 41
0.009883
 42
50.0
 43
910.564368
 44
-910.564368
 50
0.0
 51
0.0
 71
     0
 72
   100
 73
     1
 74
     3
 75
     0
 76
     0
 77
     0
 78
     0
  0
VPORT
  2
L3
 70
     0
 10
0.0
 20
0.5
 11
1.0
 21
1.0
 12
0.0
 22
0.0
 13
0.0
 23
0.0
 14
0.5
 24
0.5
 15
0.5
 25
0.5
 16
0.0
 26
0.0
 36
1.0
 17
0.0
 27
0.0
 37
0.0
 40
297.65625
 41
0.059655
 42
50.0
 43
153.577409
 44
-153.577409
 50
0.0
 51
0.0
 71
     0
 72
   100
 73
     1
 74
     3
 75
     0
 76
     0
 77
     0
 78
     0
  0
VPORT
  2
L3
 70
     0
 10
0.0
 20
0.0
 11
1.0
 21
0.5
 12
0.0
 22
0.0
 13
0.0
 23
0.0
 14
0.5
 24
0.5
 15
0.5
 25
0.5
 16
0.0
 26
-1.0
 36
0.0
 17
0.0
 27
0.0
 37
0.0
 40
1796.638703
 41
0.009883
 42
50.0
 43
923.223819
 44
-923.223819
 50
0.0
 51
0.0
 71
     0
 72
   100
 73
     1
 74
     3
 75
     0
 76
     0
 77
     0
 78
     0
  0
VPORT
  2
L4
 70
     0
 10
0.0
 20
0.5
 11
0.5
 21
1.0
 12
0.0
 22
0.0
 13
0.0
 23
0.0
 14
0.5
 24
0.5
 15
0.5
 25
0.5
 16
0.0
 26
0.0
 36
1.0
 17
0.0
 27
0.0
 37
0.0
 40
297.65625
 41
0.059655
 42
50.0
 43
153.577409
 44
-153.577409
 50
0.0
 51
0.0
 71
     0
 72
   100
 73
     1
 74
     3
 75
     0
 76
     0
 77
     0
 78
     0
  0
VPORT
  2
L4
 70
     0
 10
0.0
 20
0.0
 11
0.5
 21
0.5
 12
0.0
 22
0.0
 13
0.0
 23
0.0
 14
0.5
 24
0.5
 15
0.5
 25
0.5
 16
0.0
 26
-1.0
 36
0.0
 17
0.0
 27
0.0
 37
0.0
 40
1796.638703
 41
0.009883
 42
50.0
 43
923.223819
 44
-923.223819
 50
0.0
 51
0.0
 71
     0
 72
   100
 73
     1
 74
     3
 75
     0
 76
     0
 77
     0
 78
     0
  0
VPORT
  2
L4
 70
     0
 10
0.5
 20
0.0
 11
1.0
 21
0.5
 12
0.0
 22
0.0
 13
0.0
 23
0.0
 14
0.5
 24
0.5
 15
0.5
 25
0.5
 16
1.0
 26
0.0
 36
0.0
 17
0.0
 27
0.0
 37
0.0
 40
1796.638703
 41
0.009883
 42
50.0
 43
910.564368
 44
-910.564368
 50
0.0
 51
0.0
 71
     0
 72
   100
 73
     1
 74
     3
 75
     0
 76
     0
 77
     0
 78
     0
  0
VPORT
  2
L4
 70
     0
 10
0.5
 20
0.5
 11
1.0
 21
1.0
 12
0.0
 22
0.0
 13
0.0
 23
0.0
 14
0.5
 24
0.5
 15
0.5
 25
0.5
 16
0.5773502691896258
 26
-0.5773502691896258
 36
0.5773502691896258
 17
0.0
 27
0.0
 37
0.0
 40
1762.37228
 41
0.010075
 42
50.0
 43
917.575632
 44
-917.575632
 50
0.0
 51
0.0
 71
     0
 72
   100
 73
     1
 74
     3
 75
     0
 76
     0
 77
     0
 78
     0
  0
VPORT
  2
L6
 70
     0
 10
0.0
 20
0.5
 11
0.333333
 21
1.0
 12
0.0
 22
0.0
 13
0.0
 23
0.0
 14
0.5
 24
0.5
 15
0.5
 25
0.5
 16
0.7188730927569433
 26
-0.5850486126764433
 36
0.3754192287502549
 17
0.0
 27
0.0
 37
0.0
 40
1859.795185
 41
0.009548
 42
50.0
 43
962.884718
 44
-962.884718
 50
0.0
 51
0.0
 71
     0
 72
   100
 73
     1
 74
     3
 75
     0
 76
     0
 77
     0
 78
     0
  0
VPORT
  2
L6
 70
     0
 10
0.0
 20
0.0
 11
0.333333
 21
0.5
 12
0.0
 22
0.0
 13
0.0
 23
0.0
 14
0.5
 24
0.5
 15
0.5
 25
0.5
 16
-1.0
 26
0.0
 36
0.0
 17
0.0
 27
0.0
 37
0.0
 40
1796.638703
 41
0.009883
 42
50.0
 43
910.564368
 44
-910.564368
 50
0.0
 51
0.0
 71
     0
 72
   100
 73
     1
 74
     3
 75
     0
 76
     0
 77
     0
 78
     0
  0
VPORT
  2
L6
 70
     0
 10
0.333333
 20
0.5
 11
0.666667
 21
1.0
 12
0.0
 22
0.0
 13
0.0
 23
0.0
 14
0.5
 24
0.5
 15
0.5
 25
0.5
 16
0.0
 26
0.0
 36
1.0
 17
0.0
 27
0.0
 37
0.0
 40
297.65625
 41
0.059655
 42
50.0
 43
153.577409
 44
-153.577409
 50
0.0
 51
0.0
 71
     0
 72
   100
 73
     1
 74
     3
 75
     0
 76
     0
 77
     0
 78
     0
  0
VPORT
  2
L6
 70
     0
 10
0.333333
 20
0.0
 11
0.666667
 21
0.5
 12
0.0
 22
0.0
 13
0.0
 23
0.0
 14
0.5
 24
0.5
 15
0.5
 25
0.5
 16
0.0
 26
-1.0
 36
0.0
 17
0.0
 27
0.0
 37
0.0
 40
1796.638703
 41
0.009883
 42
50.0
 43
923.223819
 44
-923.223819
 50
0.0
 51
0.0
 71
     0
 72
   100
 73
     1
 74
     3
 75
     0
 76
     0
 77
     0
 78
     0
  0
VPORT
  2
L6
 70
     0
 10
0.666667
 20
0.5
 11
1.0
 21
1.0
 12
0.0
 22
0.0
 13
0.0
 23
0.0
 14
0.5
 24
0.5
 15
0.5
 25
0.5
 16
0.5773502691896258
 26
-0.5773502691896258
 36
0.5773502691896258
 17
0.0
 27
0.0
 37
0.0
 40
1762.37228
 41
0.010075
 42
50.0
 43
917.575632
 44
-917.575632
 50
0.0
 51
0.0
 71
     0
 72
   100
 73
     1
 74
     3
 75
     0
 76
     0
 77
     0
 78
     0
  0
VPORT
  2
L6
 70
     0
 10
0.666667
 20
0.0
 11
1.0
 21
0.5
 12
0.0
 22
0.0
 13
0.0
 23
0.0
 14
0.5
 24
0.5
 15
0.5
 25
0.5
 16
1.0
 26
0.0
 36
0.0
 17
0.0
 27
0.0
 37
0.0
 40
1796.638703
 41
0.009883
 42
50.0
 43
910.564368
 44
-910.564368
 50
0.0
 51
0.0
 71
     0
 72
   100
 73
     1
 74
     3
 75
     0
 76
     0
 77
     0
 78
     0
  0
ENDTAB
  0
TABLE
  2
LTYPE
 70
    10
  0
LTYPE
  2
CONTINUOUS
 70
     0
  3
Solid line
 72
    65
 73
     0
 40
0.0
  0
LTYPE
  2
ACAD_ISO04W100
 70
     0
  3
ISO long-dash dot ____ . ____ . ____ . ____ . _
 72
    65
 73
     4
 40
30.0
 49
24.0
 49
-3.0
 49
0.0
 49
-3.0
  0
LTYPE
  2
ACAD_ISO05W100
 70
     0
  3
ISO long-dash double-dot ____ .. ____ .. ____ . 
 72
    65
 73
     6
 40
33.0
 49
24.0
 49
-3.0
 49
0.0
 49
-3.0
 49
0.0
 49
-3.0
  0
LTYPE
  2
ACAD_ISO06W100
 70
     0
  3
ISO long-dash triple-dot ____ ... ____ ... ____
 72
    65
 73
     8
 40
36.0
 49
24.0
 49
-3.0
 49
0.0
 49
-3.0
 49
0.0
 49
-3.0
 49
0.0
 49
-3.0
  0
LTYPE
  2
ACAD_ISO09W100
 70
     0
  3
ISO long-dash double-short-dash ____ __ __ ____
 72
    65
 73
     6
 40
45.0
 49
24.0
 49
-3.0
 49
6.0
 49
-3.0
 49
6.0
 49
-3.0
  0
LTYPE
  2
CENTER
 70
     0
  3
____ _ ____ _ ____ _ ____
 72
    65
 73
     4
 40
47.4
 49
22.0
 49
-8.5
 49
8.5
 49
-8.5
  0
LTYPE
  2
DASHDOT
 70
     0
  3
_._._._._._._._._._._._._._._._.
 72
    65
 73
     4
 40
70.0
 49
31.0
 49
-13.0
 49
13.0
 49
-13.0
  0
LTYPE
  2
DASHED
 70
     0
  3
__ __ __ __ __ __ __ __ __
 72
    65
 73
     2
 40
25.72
 49
12.86
 49
-12.86
  0
LTYPE
  2
DOT
 70
     0
  3
.........................
 72
    65
 73
     2
 40
10.0
 49
0.0
 49
-10.0
  0
LTYPE
  2
PHANTOM
 70
     0
  3
____ _ _ ____ _ _ _____ _ _ ____
 72
    65
 73
     6
 40
50.5
 49
18.0
 49
-6.5
 49
6.5
 49
-6.5
 49
6.5
 49
-6.5
  0
ENDTAB
  0
TABLE
  2
LAYER
 70
     2
  0
LAYER
  2
0
 70
     0
 62
     7
  6
CONTINUOUS
  0
LAYER
  2
1
 70
     0
 62
     7
  6
CONTINUOUS
  0
ENDTAB
  0
TABLE
  2
STYLE
 70
     1
  0
STYLE
  2
STANDARD
 70
     0
 40
0.0
 41
1.0
 50
0.0
 71
     0
 42
0.2
  3
txt
  4

  0
ENDTAB
  0
TABLE
  2
VIEW
 70
     8
  0
VIEW
  2
TOP
 70
     0
 40
297.65625
 10
0.0
 20
0.0
 41
425.979167
 11
0.0
 21
0.0
 31
1.0
 12
0.0
 22
0.0
 32
0.0
 42
50.0
 43
153.577409
 44
-153.577409
 50
0.0
 71
     0
  0
VIEW
  2
FRONT
 70
     0
 40
1796.638703
 10
0.0
 20
0.0
 41
425.979167
 11
0.0
 21
-1.0
 31
0.0
 12
0.0
 22
0.0
 32
0.0
 42
50.0
 43
923.223819
 44
-923.223819
 50
0.0
 71
     0
  0
VIEW
  2
RIGHT
 70
     0
 40
1796.638703
 10
0.0
 20
0.0
 41
297.65625
 11
1.0
 21
0.0
 31
0.0
 12
0.0
 22
0.0
 32
0.0
 42
50.0
 43
910.564368
 44
-910.564368
 50
0.0
 71
     0
  0
VIEW
  2
BACK
 70
     0
 40
1796.638703
 10
0.0
 20
0.0
 41
425.979167
 11
0.0
 21
1.0
 31
0.0
 12
0.0
 22
0.0
 32
0.0
 42
50.0
 43
923.223819
 44
-923.223819
 50
0.0
 71
     0
  0
VIEW
  2
BOTTOM
 70
     0
 40
297.65625
 10
0.0
 20
0.0
 41
425.979167
 11
0.0
 21
0.0
 31
-1.0
 12
0.0
 22
0.0
 32
0.0
 42
50.0
 43
898.319352
 44
-898.319352
 50
180.0
 71
     0
  0
VIEW
  2
LEFT
 70
     0
 40
1796.638703
 10
0.0
 20
0.0
 41
297.65625
 11
-1.0
 21
0.0
 31
0.0
 12
0.0
 22
0.0
 32
0.0
 42
50.0
 43
910.564368
 44
-910.564368
 50
0.0
 71
     0
  0
VIEW
  2
ISOMETRIC
 70
     0
 40
1762.37228
 10
0.0
 20
0.0
 41
511.68751
 11
0.5773502691896258
 21
-0.5773502691896258
 31
0.5773502691896258
 12
0.0
 22
0.0
 32
0.0
 42
50.0
 43
917.575632
 44
-917.575632
 50
0.0
 71
     0
  0
VIEW
  2
TRIMETRIC
 70
     0
 40
1859.795185
 10
0.0
 20
0.0
 41
499.749726
 11
0.7188730927569433
 21
-0.5850486126764433
 31
0.3754192287502549
 12
0.0
 22
0.0
 32
0.0
 42
50.0
 43
962.884718
 44
-962.884718
 50
0.0
 71
     0
  0
ENDTAB
  0
TABLE
  2
UCS
 70
     0
  0
ENDTAB
  0
TABLE
  2
APPID
 70
     1
  0
APPID
  2
ACAD
 70
     0
  0
ENDTAB
  0
TABLE
  2
DIMSTYLE
 70
     1
  0
DIMSTYLE
  2
STANDARD
 70
     0
  3

  4

  5

  6

  7

 40
1.0
 41
0.18
 42
0.0625
 43
0.38
 44
0.18
 45
0.0
 46
0.0
 47
0.0
 48
0.0
140
0.18
141
0.09
142
0.0
143
25.4
144
1.0
145
0.0
146
1.0
147
0.09
 71
     0
 72
     0
 73
     1
 74
     1
 75
     0
 76
     0
 77
     0
 78
     0
170
     0
171
     2
172
     0
173
     0
174
     0
175
     0
176
     0
177
     0
178
     0
  0
ENDTAB
  0
ENDSEC
  0
SECTION
  2
BLOCKS
  0
BLOCK
  8
0
  2
$MODEL_SPACE
 70
     0
 10
0.0
 20
0.0
 30
0.0
  3
$MODEL_SPACE
  1

  0
ENDBLK
  5
21
  8
0
  0
BLOCK
 67
     1
  8
0
  2
$PAPER_SPACE
 70
     0
 10
0.0
 20
0.0
 30
0.0
  3
$PAPER_SPACE
  1

  0
ENDBLK
  5
1D
 67
     1
  8
0
  0
ENDSEC
  0
SECTION
  2
ENTITIES
  0
LINE
  5
77
  8
1
  6
CONTINUOUS
 62
   173
 10
-8.423806
 20
7.256373
 30
0.0
 11
-24.236598
 21
23.069164
 31
0.0
  0
LINE
  5
79
  8
1
  6
CONTINUOUS
 62
   173
 10
9.566211
 20
-0.762
 30
0.0
 11
9.566211
 21
0.762
 31
0.0
  0
LINE
  5
7A
  8
1
  6
CONTINUOUS
 62
   173
 10
7.303148
 20
6.225517
 30
0.0
 11
6.225517
 21
7.303148
 31
0.0
  0
LINE
  5
7B
  8
1
  6
CONTINUOUS
 62
   173
 10
8.423806
 20
-7.256373
 30
0.0
 11
24.236598
 21
-23.069164
 31
0.0
  0
LINE
  5
7C
  8
1
  6
CONTINUOUS
 62
   173
 10
-0.762
 20
-9.566211
 30
0.0
 11
0.762
 21
-9.566211
 31
0.0
  0
LINE
  5
7D
  8
1
  6
CONTINUOUS
 62
   173
 10
33.450225
 20
-0.8255
 30
0.0
 11
11.087561
 21
-0.8255
 31
0.0
  0
LINE
  5
7E
  8
1
  6
CONTINUOUS
 62
   173
 10
-6.225517
 20
7.303148
 30
0.0
 11
-7.303148
 21
6.225517
 31
0.0
  0
LINE
  5
7F
  8
1
  6
CONTINUOUS
 62
   173
 10
24.236598
 20
23.069164
 30
0.0
 11
8.423806
 21
7.256373
 31
0.0
  0
LINE
  5
80
  8
1
  6
CONTINUOUS
 62
   173
 10
-9.566211
 20
0.762
 30
0.0
 11
-9.566211
 21
-0.762
 31
0.0
  0
LINE
  5
81
  8
1
  6
CONTINUOUS
 62
   173
 10
-33.450225
 20
0.8255
 30
0.0
 11
-11.087561
 21
0.8255
 31
0.0
  0
LINE
  5
82
  8
1
  6
CONTINUOUS
 62
   173
 10
0.8255
 20
33.450225
 30
0.0
 11
0.8255
 21
11.087561
 31
0.0
  0
LINE
  5
83
  8
1
  6
CONTINUOUS
 62
   173
 10
0.8255
 20
-11.087561
 30
0.0
 11
0.8255
 21
-33.450225
 31
0.0
  0
LINE
  5
84
  8
1
  6
CONTINUOUS
 62
   173
 10
11.087561
 20
0.8255
 30
0.0
 11
33.450225
 21
0.8255
 31
0.0
  0
LINE
  5
85
  8
1
  6
CONTINUOUS
 62
   173
 10
0.762
 20
9.566211
 30
0.0
 11
-0.762
 21
9.566211
 31
0.0
  0
LINE
  5
86
  8
1
  6
CONTINUOUS
 62
   173
 10
-0.8255
 20
-33.450225
 30
0.0
 11
-0.8255
 21
-11.087561
 31
0.0
  0
LINE
  5
87
  8
1
  6
CONTINUOUS
 62
   173
 10
-11.087561
 20
-0.8255
 30
0.0
 11
-33.450225
 21
-0.8255
 31
0.0
  0
LINE
  5
88
  8
1
  6
CONTINUOUS
 62
   173
 10
7.256373
 20
8.423806
 30
0.0
 11
23.069164
 21
24.236598
 31
0.0
  0
LINE
  5
89
  8
1
  6
CONTINUOUS
 62
   173
 10
6.225517
 20
-7.303148
 30
0.0
 11
7.303148
 21
-6.225517
 31
0.0
  0
LINE
  5
8A
  8
1
  6
CONTINUOUS
 62
   173
 10
23.069164
 20
-24.236598
 30
0.0
 11
7.256373
 21
-8.423806
 31
0.0
  0
LINE
  5
8B
  8
1
  6
CONTINUOUS
 62
   173
 10
-7.303148
 20
-6.225517
 30
0.0
 11
-6.225517
 21
-7.303148
 31
0.0
  0
LINE
  5
8C
  8
1
  6
CONTINUOUS
 62
   173
 10
-0.8255
 20
11.087561
 30
0.0
 11
-0.8255
 21
33.450225
 31
0.0
  0
LINE
  5
8D
  8
1
  6
CONTINUOUS
 62
   173
 10
-24.236598
 20
-23.069164
 30
0.0
 11
-8.423806
 21
-7.256373
 31
0.0
  0
LINE
  5
8E
  8
1
  6
CONTINUOUS
 62
   173
 10
-23.069164
 20
24.236598
 30
0.0
 11
-7.256373
 21
8.423806
 31
0.0
  0
LINE
  5
8F
  8
1
  6
CONTINUOUS
 62
   173
 10
-7.256373
 20
-8.423806
 30
0.0
 11
-23.069164
 21
-24.236598
 31
0.0
  0
ARC
  5
90
  8
1
  6
CONTINUOUS
 62
   173
 10
0.0
 20
0.0
 30
0.0
 40
34.5
 50
93.12374
 51
131.87626
  0
ARC
  5
91
  8
1
  6
CONTINUOUS
 62
   173
 10
0.0
 20
0.0
 30
0.0
 40
34.5
 50
228.12374
 51
266.87626
  0
ARC
  5
92
  8
1
  6
CONTINUOUS
 62
   173
 10
24.943704
 20
22.362057
 30
0.0
 40
1.000000000000014
 50
41.87626
 51
135.0
  0
ARC
  5
93
  8
1
  6
CONTINUOUS
 62
   173
 10
1.8255
 20
33.450225
 30
0.0
 40
1.000000000000004
 50
86.87626
 51
180.0
  0
CIRCLE
  5
94
  8
1
  6
CONTINUOUS
 62
   150
 10
-8.9332
 20
28.6
 30
0.0
 40
1.63195
  0
CIRCLE
  5
95
  8
1
  6
CONTINUOUS
 62
   150
 10
20.6
 20
8.9332
 30
0.0
 40
1.63195
  0
ARC
  5
96
  8
1
  6
CONTINUOUS
 62
   173
 10
10.328211
 20
-0.762
 30
0.0
 40
0.762000000000001
 50
180.0
 51
355.219808
  0
CIRCLE
  5
97
  8
1
  6
CONTINUOUS
 62
   150
 10
28.6
 20
8.9332
 30
0.0
 40
1.63195
  0
ARC
  5
98
  8
1
  6
CONTINUOUS
 62
   173
 10
0.0
 20
0.0
 30
0.0
 40
34.49999999999974
 50
138.12374
 51
176.87626
  0
CIRCLE
  5
99
  8
1
  6
CONTINUOUS
 62
   150
 10
0.0
 20
0.0
 30
0.0
 40
1.63195
  0
ARC
  5
9A
  8
1
  6
CONTINUOUS
 62
   173
 10
-10.328211
 20
-0.762
 30
0.0
 40
0.7619999999999979
 50
184.780192
 51
360.0
  0
CIRCLE
  5
9B
  8
1
  6
CONTINUOUS
 62
   150
 10
-8.9332
 20
20.6
 30
0.0
 40
1.63195
  0
ARC
  5
9C
  8
1
  6
CONTINUOUS
 62
   173
 10
33.450225
 20
1.8255
 30
0.0
 40
1.000000000000001
 50
270.0
 51
3.12374
  0
CIRCLE
  5
9D
  8
1
  6
CONTINUOUS
 62
   150
 10
-13.906527
 20
-26.53998
 30
0.0
 40
1.63195
  0
ARC
  5
9E
  8
1
  6
CONTINUOUS
 62
   173
 10
-33.450225
 20
-1.8255
 30
0.0
 40
0.9999999999999987
 50
90.0
 51
183.12374
  0
CIRCLE
  5
9F
  8
1
  6
CONTINUOUS
 62
   150
 10
-8.249673
 20
-20.883126
 30
0.0
 40
1.63195
  0
ARC
  5
A0
  8
1
  6
CONTINUOUS
 62
   173
 10
0.0
 20
0.0
 30
0.0
 40
34.5
 50
318.12374
 51
356.87626
  0
ARC
  5
A1
  8
1
  6
CONTINUOUS
 62
   173
 10
0.762
 20
10.328211
 30
0.0
 40
0.762000000000001
 50
270.0
 51
85.219808
  0
CIRCLE
  5
A2
  8
1
  6
CONTINUOUS
 62
   150
 10
13.906527
 20
26.53998
 30
0.0
 40
1.63195
  0
ARC
  5
A3
  8
1
  6
CONTINUOUS
 62
   173
 10
7.841963
 20
-6.764333
 30
0.0
 40
0.7620000000000022
 50
319.780192
 51
135.0
  0
ARC
  5
A4
  8
1
  6
CONTINUOUS
 62
   173
 10
-24.943704
 20
22.362057
 30
0.0
 40
1.0
 50
45.0
 51
138.12374
  0
ARC
  5
A5
  8
1
  6
CONTINUOUS
 62
   173
 10
-0.762
 20
-10.328211
 30
0.0
 40
0.7620000000000005
 50
90.0
 51
265.219808
  0
ARC
  5
A6
  8
1
  6
CONTINUOUS
 62
   173
 10
7.841963
 20
6.764333
 30
0.0
 40
0.7620000000000026
 50
225.0
 51
40.219808
  0
ARC
  5
A7
  8
1
  6
CONTINUOUS
 62
   173
 10
-33.450225
 20
1.8255
 30
0.0
 40
1.000000000000011
 50
176.87626
 51
270.0
  0
ARC
  5
A8
  8
1
  6
CONTINUOUS
 62
   173
 10
-6.764333
 20
7.841963
 30
0.0
 40
0.7620000000000028
 50
315.0
 51
130.219808
  0
ARC
  5
A9
  8
1
  6
CONTINUOUS
 62
   173
 10
10.328211
 20
0.762
 30
0.0
 40
0.7620000000000003
 50
4.780192
 51
180.0
  0
CIRCLE
  5
AA
  8
1
  6
CONTINUOUS
 62
   150
 10
8.9332
 20
-20.6
 30
0.0
 40
1.63195
  0
ARC
  5
AB
  8
1
  6
CONTINUOUS
 62
   173
 10
0.762
 20
-10.328211
 30
0.0
 40
0.7619999999999991
 50
274.780192
 51
90.0
  0
ARC
  5
AC
  8
1
  6
CONTINUOUS
 62
   173
 10
-22.362057
 20
24.943704
 30
0.0
 40
1.000000000000007
 50
131.87626
 51
225.0
  0
ARC
  5
AD
  8
1
  6
CONTINUOUS
 62
   173
 10
-24.943704
 20
-22.362057
 30
0.0
 40
1.000000000000006
 50
221.87626
 51
315.0
  0
ARC
  5
AE
  8
1
  6
CONTINUOUS
 62
   173
 10
1.8255
 20
-33.450225
 30
0.0
 40
1.000000000000001
 50
180.0
 51
273.12374
  0
ARC
  5
AF
  8
1
  6
CONTINUOUS
 62
   173
 10
0.0
 20
0.0
 30
0.0
 40
34.5
 50
48.12374
 51
86.87626
  0
ARC
  5
B0
  8
1
  6
CONTINUOUS
 62
   173
 10
-10.328211
 20
0.762
 30
0.0
 40
0.7620000000000026
 50
360.0
 51
175.219808
  0
ARC
  5
B1
  8
1
  6
CONTINUOUS
 62
   173
 10
0.0
 20
0.0
 30
0.0
 40
34.5
 50
3.12374
 51
41.87626
  0
CIRCLE
  5
B2
  8
1
  6
CONTINUOUS
 62
   150
 10
-26.53998
 20
13.906527
 30
0.0
 40
1.63195
  0
CIRCLE
  5
B3
  8
1
  6
CONTINUOUS
 62
   150
 10
-20.883126
 20
8.249673
 30
0.0
 40
1.63195
  0
ARC
  5
B4
  8
1
  6
CONTINUOUS
 62
   173
 10
-7.841963
 20
-6.764333
 30
0.0
 40
0.7620000000000027
 50
45.0
 51
220.219808
  0
ARC
  5
B5
  8
1
  6
CONTINUOUS
 62
   173
 10
-1.8255
 20
-33.450225
 30
0.0
 40
1.000000000000003
 50
266.87626
 51
360.0
  0
ARC
  5
B6
  8
1
  6
CONTINUOUS
 62
   173
 10
33.450225
 20
-1.8255
 30
0.0
 40
1.000000000000003
 50
356.87626
 51
90.0
  0
ARC
  5
B7
  8
1
  6
CONTINUOUS
 62
   173
 10
-1.8255
 20
33.450225
 30
0.0
 40
1.000000000000001
 50
360.0
 51
93.12374
  0
CIRCLE
  5
B8
  8
1
  6
CONTINUOUS
 62
   150
 10
26.53998
 20
-13.906527
 30
0.0
 40
1.63195
  0
ARC
  5
B9
  8
1
  6
CONTINUOUS
 62
   173
 10
-22.362057
 20
-24.943704
 30
0.0
 40
1.0
 50
135.0
 51
228.12374
  0
ARC
  5
BA
  8
1
  6
CONTINUOUS
 62
   173
 10
22.362057
 20
24.943704
 30
0.0
 40
1.0
 50
315.0
 51
48.12374
  0
ARC
  5
BB
  8
1
  6
CONTINUOUS
 62
   173
 10
6.764333
 20
-7.841963
 30
0.0
 40
0.762000000000001
 50
135.0
 51
310.219808
  0
CIRCLE
  5
BC
  8
1
  6
CONTINUOUS
 62
   150
 10
20.883126
 20
-8.249673
 30
0.0
 40
1.63195
  0
ARC
  5
BD
  8
1
  6
CONTINUOUS
 62
   173
 10
0.0
 20
0.0
 30
0.0
 40
34.5
 50
273.12374
 51
311.87626
  0
ARC
  5
BE
  8
1
  6
CONTINUOUS
 62
   173
 10
24.943704
 20
-22.362057
 30
0.0
 40
1.0
 50
225.0
 51
318.12374
  0
CIRCLE
  5
BF
  8
1
  6
CONTINUOUS
 62
   150
 10
-20.6
 20
-8.9332
 30
0.0
 40
1.63195
  0
CIRCLE
  5
C0
  8
1
  6
CONTINUOUS
 62
   150
 10
-28.6
 20
-8.9332
 30
0.0
 40
1.63195
  0
ARC
  5
C1
  8
1
  6
CONTINUOUS
 62
   173
 10
-7.841963
 20
6.764333
 30
0.0
 40
0.762000000000004
 50
139.780192
 51
315.0
  0
ARC
  5
C2
  8
1
  6
CONTINUOUS
 62
   173
 10
22.362057
 20
-24.943704
 30
0.0
 40
1.000000000000006
 50
311.87626
 51
45.0
  0
ARC
  5
C3
  8
1
  6
CONTINUOUS
 62
   173
 10
0.0
 20
0.0
 30
0.0
 40
34.5
 50
183.12374
 51
221.87626
  0
ARC
  5
C4
  8
1
  6
CONTINUOUS
 62
   173
 10
6.764333
 20
7.841963
 30
0.0
 40
0.7620000000000092
 50
49.780192
 51
225.0
  0
ARC
  5
C5
  8
1
  6
CONTINUOUS
 62
   173
 10
-0.762
 20
10.328211
 30
0.0
 40
0.7619999999999985
 50
94.780192
 51
270.0
  0
CIRCLE
  5
C6
  8
1
  6
CONTINUOUS
 62
   150
 10
8.9332
 20
-28.6
 30
0.0
 40
1.63195
  0
CIRCLE
  5
C7
  8
1
  6
CONTINUOUS
 62
   150
 10
8.249673
 20
20.883126
 30
0.0
 40
1.63195
  0
ARC
  5
C8
  8
1
  6
CONTINUOUS
 62
   173
 10
-6.764333
 20
-7.841963
 30
0.0
 40
0.7620000000000006
 50
229.780192
 51
45.0
  0
ENDSEC
  0
EOF
